PathFileType	4	(X/Y/Z)	 s07c0402.trc
DataRate	CameraRate	NumFrames	NumMarkers	Units	OrigDataRate	OrigDataStartFrame	OrigNumFrames
200	200	4	48	mm	200	251	2000
Frame#	Time	racr			lacr			c7			jug			rlel			rdr			llel			ldr			s2			lic			ric			lasi			rasi			rpsi			lpsi			rgt			lgt			rth1			rth2			rth3			rth4			rlfc			rmfc			rsh1			rsh2			rsh3			rsh4			rlmal			rcal			rtoe			rmt5			lth1			lth2			lth4			lth3			llfc			lmfc			lsh1			lsh2			lsh3			lsh4			llmal			lcal			ltoe			lmt5			SBIKE			LBIKE			RBIKE			
		X1	Y1	Z1	X2	Y2	Z2	X3	Y3	Z3	X4	Y4	Z4	X5	Y5	Z5	X6	Y6	Z6	X7	Y7	Z7	X8	Y8	Z8	X9	Y9	Z9	X10	Y10	Z10	X11	Y11	Z11	X12	Y12	Z12	X13	Y13	Z13	X14	Y14	Z14	X15	Y15	Z15	X16	Y16	Z16	X17	Y17	Z17	X18	Y18	Z18	X19	Y19	Z19	X20	Y20	Z20	X21	Y21	Z21	X22	Y22	Z22	X23	Y23	Z23	X24	Y24	Z24	X25	Y25	Z25	X26	Y26	Z26	X27	Y27	Z27	X28	Y28	Z28	X29	Y29	Z29	X30	Y30	Z30	X31	Y31	Z31	X32	Y32	Z32	X33	Y33	Z33	X34	Y34	Z34	X35	Y35	Z35	X36	Y36	Z36	X37	Y37	Z37	X38	Y38	Z38	X39	Y39	Z39	X40	Y40	Z40	X41	Y41	Z41	X42	Y42	Z42	X43	Y43	Z43	X44	Y44	Z44	X45	Y45	Z45	X46	Y46	Z46	X47	Y47	Z47	X48	Y48	Z48	
251	1.2550	424.272371	1467.617710	-80.732581	414.801885	1459.227983	-364.663270	396.088842	1499.139713	-227.223233	369.301814	1357.256661	-223.487867	489.477179	1149.157522	42.686393	689.890434	935.446165	-37.617692	508.936279	1159.558159	-480.818189	696.046632	930.589247	-425.262897	-139.438031	1203.689266	-242.060827	23.643441	1259.608342	-380.800890	24.786542	1249.331313	-87.677207	58.333594	1180.580874	-354.524366	39.982501	1192.822049	-106.940851	-116.545742	1242.769728	-188.770351	-99.675823	1253.051332	-296.508090	-31.679959	1123.955448	-44.416578	-30.821925	1098.662514	-409.991653	107.514718	1068.675673	-34.391924	194.234520	1055.902908	-40.387269	263.499089	1006.471160	-34.146202	206.511108	1086.382243	-57.935122	386.447134	928.605418	-63.520717	388.386902	917.973899	-169.465844	336.711878	793.356459	-47.344841	323.441529	707.360594	-71.335701	272.569665	637.515604	-70.673907	340.392646	707.003782	-107.045409	213.394601	516.239102	-78.803314	144.174427	481.322673	-109.590668	431.023524	436.970907	-118.732703	351.191684	409.010799	-50.201578	28.573146	991.066146	-417.371041	96.715361	935.190118	-422.014157	126.345462	955.753549	-414.627803	127.945157	851.790936	-418.246121	215.528063	693.914682	-387.801087	204.202539	678.144909	-290.509495	124.833834	573.105663	-408.701045	89.881388	497.216690	-387.323679	20.272171	440.800264	-396.339462	92.620066	499.137909	-345.727021	-67.620989	337.184889	-394.534760	-145.675319	308.214548	-361.731018	137.265730	246.946554	-354.798082	55.202777	235.032161	-420.310231	-260.055507	971.710183	-233.342753	-75.952523	83.418462	-438.466406	-82.957662	79.508408	-40.935692	
252	1.2600	424.225406	1467.609580	-80.691664	414.756573	1459.217292	-364.565408	396.032762	1499.169512	-227.196852	369.244572	1357.263157	-223.463874	489.515747	1149.156006	42.600604	689.904946	935.338175	-37.630739	509.006620	1159.600092	-480.708051	696.048215	930.573028	-425.245660	-139.461292	1203.659746	-242.116429	23.657052	1259.574623	-380.829913	24.722889	1249.313855	-87.706008	58.314855	1180.563432	-354.513525	39.935795	1192.772241	-106.929682	-116.590893	1242.757477	-188.787437	-99.704620	1253.029856	-296.530840	-31.738488	1123.957286	-44.419614	-30.821723	1098.645468	-409.989140	107.475306	1068.642555	-34.386497	194.205415	1055.873939	-40.401200	263.466000	1006.447708	-34.157713	206.466747	1086.350327	-57.943884	386.412474	928.608393	-63.532743	388.341934	917.963468	-169.499740	336.641489	793.352895	-47.361251	323.419042	707.353891	-71.332914	272.521487	637.502907	-70.682631	340.355670	707.000028	-107.042054	213.373052	516.231527	-78.818605	144.145600	481.308916	-109.588730	431.013219	436.984124	-118.729782	351.177614	409.019976	-50.184951	28.578644	991.052193	-417.375955	96.715029	935.198995	-422.032807	126.333002	955.753951	-414.659083	127.943244	851.790628	-418.233349	215.529998	693.917704	-387.776005	204.213074	678.180494	-290.486882	124.827459	573.126364	-408.706515	89.858080	497.225848	-387.338343	20.267943	440.826906	-396.331597	92.597999	499.134013	-345.708985	-67.612531	337.194178	-394.519476	-145.677772	308.234171	-361.741610	137.264993	246.959699	-354.803049	55.200662	235.027074	-420.309111	-260.067789	971.693002	-233.338783	-75.960453	83.430569	-438.481580	-82.911884	79.364885	-41.009662	
253	1.2650	424.139813	1467.628040	-80.641268	413.145480	1458.062713	-360.158886	395.949755	1499.215672	-227.147070	369.203991	1357.287609	-223.425930	489.585497	1149.169474	42.522530	689.879677	935.292187	-37.647269	509.088980	1159.643044	-480.544152	696.047818	930.547343	-425.190971	-139.495639	1203.646605	-242.147361	23.636142	1259.575846	-380.842409	24.675657	1249.313675	-87.718662	58.288773	1180.507597	-354.496995	39.879729	1192.739896	-106.902263	-116.626623	1242.736494	-188.827715	-99.724980	1253.004880	-296.561499	-31.761986	1123.932108	-44.429080	-30.823074	1098.630619	-409.988062	107.445697	1068.601406	-34.386542	194.176737	1055.852180	-40.396731	263.426862	1006.422095	-34.163914	206.423169	1086.303154	-57.949611	386.373156	928.583210	-63.529833	387.903132	918.097609	-170.372205	336.599088	793.344661	-47.361399	323.391044	707.336145	-71.346626	272.503612	637.481326	-70.692149	340.353390	706.994231	-107.035752	213.371503	516.187084	-78.810664	144.139541	481.261465	-109.589697	431.022042	436.980003	-118.736488	351.154712	409.019401	-50.198377	28.580717	991.042319	-417.364850	96.720074	935.180678	-422.028316	126.353480	955.756827	-414.664905	127.957286	851.797042	-418.227869	215.544237	693.916567	-387.757263	204.193378	678.167171	-290.466389	124.819630	573.131608	-408.690691	89.850941	497.225134	-387.312419	20.238182	440.833748	-396.336800	92.575404	499.139338	-345.686778	-67.644351	337.196725	-394.526083	-145.693427	308.231616	-361.733582	137.237538	246.975736	-354.802026	55.193726	235.039227	-420.308569	-260.062656	971.705754	-233.346265	-75.949687	83.412603	-438.462367	-82.947865	79.488572	-40.964769	
254	1.2700	424.079140	1467.658960	-80.619323	413.101895	1458.134868	-360.170202	395.894113	1499.257010	-227.125459	369.182281	1357.314695	-223.402485	489.664555	1149.212539	42.438621	689.882735	935.253934	-37.653985	508.884150	1159.327560	-479.653286	696.063598	930.547262	-425.174818	-139.534540	1203.619636	-242.162109	23.605643	1259.568039	-380.830391	24.612004	1249.296217	-87.747460	58.289605	1180.496745	-354.500755	39.846356	1192.708171	-106.891313	-116.859669	1242.854642	-188.698558	-99.742142	1252.973942	-296.620592	-31.797093	1123.919669	-44.460954	-30.820154	1098.626063	-409.999747	107.412320	1068.582089	-34.378601	194.142036	1055.830861	-40.388599	263.429060	1006.396942	-34.187232	206.381901	1086.280988	-57.944548	386.383960	928.595844	-63.529723	387.877575	918.098676	-170.371888	336.583120	793.336934	-47.374510	323.396636	707.337916	-71.322596	272.508052	637.456114	-70.700490	340.339110	706.958565	-107.045388	213.394166	516.163521	-78.826649	144.165254	481.227600	-109.586660	431.040378	436.942558	-118.735618	351.180602	408.987420	-50.185172	28.591571	991.031409	-417.352559	96.735810	935.177112	-422.024091	126.353929	955.744794	-414.667628	127.961655	851.786421	-418.202542	215.542732	693.876191	-387.684610	204.205846	678.164989	-290.417289	124.798364	573.133263	-408.670894	89.811026	497.276913	-387.345747	20.208247	440.842390	-396.316061	92.571496	499.137501	-345.679881	-67.692570	337.221779	-394.523485	-145.753903	308.232907	-361.743132	137.222811	247.009881	-354.809088	55.166602	235.063665	-420.317517	-260.073685	971.702067	-233.349097	-75.946585	83.445922	-438.487470	-82.961059	79.494132	-40.948426	
